<svg width="14" height="15" viewBox="0 0 14 15" fill="none" xmlns="http://www.w3.org/2000/svg">
<g clip-path="url(#clip0_2090_2407)">
<g clip-path="url(#clip1_2090_2407)">
<path d="M12.8333 10.9534V12.7034C12.834 12.8658 12.8007 13.0267 12.7356 13.1755C12.6705 13.3244 12.5751 13.458 12.4554 13.5678C12.3357 13.6776 12.1943 13.7613 12.0404 13.8133C11.8865 13.8653 11.7235 13.8847 11.5617 13.8701C9.76665 13.675 8.04242 13.0616 6.5275 12.0792C5.11807 11.1836 3.92311 9.98866 3.0275 8.57922C2.04166 7.05743 1.42814 5.3248 1.23667 3.52172C1.22209 3.36041 1.24126 3.19783 1.29296 3.04434C1.34466 2.89084 1.42775 2.74979 1.53695 2.63017C1.64615 2.51055 1.77905 2.41497 1.92721 2.34953C2.07537 2.28409 2.23553 2.25021 2.3975 2.25006H4.1475C4.4306 2.24727 4.70505 2.34752 4.9197 2.53212C5.13434 2.71672 5.27455 2.97307 5.31417 3.25339C5.38803 3.81343 5.52501 4.36331 5.7225 4.89256C5.80099 5.10135 5.81797 5.32826 5.77145 5.5464C5.72492 5.76455 5.61684 5.96479 5.46 6.12339L4.71917 6.86422C5.54958 8.32462 6.75877 9.53382 8.21917 10.3642L8.96 9.62339C9.1186 9.46655 9.31884 9.35847 9.53699 9.31194C9.75513 9.26542 9.98205 9.28241 10.1908 9.36089C10.7201 9.55838 11.27 9.69536 11.83 9.76922C12.1134 9.8092 12.3722 9.95193 12.5571 10.1703C12.7421 10.3886 12.8404 10.6673 12.8333 10.9534Z" stroke="#E5E5E5" stroke-linecap="round" stroke-linejoin="round"/>
</g>
</g>
<defs>
<clipPath id="clip0_2090_2407">
<rect width="14" height="14" fill="white" transform="translate(0 0.5)"/>
</clipPath>
<clipPath id="clip1_2090_2407">
<rect width="14" height="14" fill="white" transform="translate(0 1.0835)"/>
</clipPath>
</defs>
</svg>
