<svg width="22" height="23" viewBox="0 0 22 23" fill="none" xmlns="http://www.w3.org/2000/svg">
<path d="M10.5162 1.51206C5.20625 1.76206 1.01725 6.15206 1.03325 11.4291C1.03588 12.9824 1.40777 14.5128 2.11825 15.8941L1.06025 20.9951C1.04734 21.0588 1.05072 21.1248 1.07008 21.187C1.08943 21.2491 1.12414 21.3053 1.17099 21.3505C1.21784 21.3956 1.27532 21.4283 1.33812 21.4453C1.40091 21.4624 1.46699 21.4633 1.53025 21.4481L6.56425 20.2641C7.89752 20.923 9.36119 21.2756 10.8482 21.2961C16.2752 21.3791 20.7992 17.1011 20.9682 11.7161C21.1502 5.94106 16.3512 1.23506 10.5162 1.51106V1.51206ZM16.5232 16.8791C15.7977 17.602 14.9367 18.1746 13.9895 18.5642C13.0422 18.9537 12.0274 19.1525 11.0032 19.1491C9.79826 19.1528 8.60893 18.8761 7.52925 18.3411L6.82825 17.9941L3.74125 18.7201L4.39125 15.5891L4.04525 14.9171C3.48435 13.8298 3.19348 12.6235 3.19725 11.4001C3.19725 9.33006 4.00925 7.38306 5.48325 5.92006C6.95244 4.46576 8.936 3.6497 11.0032 3.64906C13.0892 3.64906 15.0492 4.45506 16.5232 5.91906C17.2494 6.63474 17.8257 7.48795 18.2183 8.42886C18.611 9.36977 18.8122 10.3795 18.8102 11.3991C18.8102 13.4511 17.9852 15.4291 16.5232 16.8801V16.8791Z" fill="#426ED1"/>
<path d="M15.8424 13.545L13.9114 12.995C13.7868 12.9592 13.6548 12.9576 13.5294 12.9903C13.404 13.0231 13.2896 13.0889 13.1984 13.181L12.7264 13.659C12.6288 13.758 12.5041 13.826 12.368 13.8545C12.2319 13.883 12.0905 13.8706 11.9614 13.819C11.0484 13.452 9.12638 11.756 8.63538 10.907C8.56655 10.7871 8.53511 10.6493 8.54509 10.5114C8.55507 10.3735 8.60601 10.2418 8.69138 10.133L9.10338 9.603C9.1827 9.50145 9.23289 9.38023 9.24856 9.25234C9.26424 9.12445 9.24482 8.9947 9.19238 8.877L8.38038 7.053C8.33446 6.95105 8.26551 6.86114 8.17896 6.79034C8.09242 6.71954 7.99063 6.66979 7.8816 6.64498C7.77257 6.62017 7.65928 6.62098 7.55062 6.64736C7.44196 6.67374 7.3409 6.72496 7.25538 6.797C6.71638 7.25 6.07638 7.937 5.99938 8.7C5.86238 10.043 6.44238 11.736 8.63638 13.77C11.1714 16.119 13.2024 16.43 14.5234 16.111C15.2734 15.931 15.8734 15.208 16.2504 14.617C16.3105 14.5231 16.3477 14.4164 16.3591 14.3055C16.3706 14.1946 16.3559 14.0825 16.3162 13.9783C16.2765 13.8741 16.213 13.7806 16.1307 13.7054C16.0485 13.6301 15.9497 13.5752 15.8424 13.545Z" fill="#426ED1"/>
</svg>
